<?xml version="1.0" encoding="utf-8"?>
<!-- Generator: Adobe Illustrator 25.1.0, SVG Export Plug-In . SVG Version: 6.00 Build 0)  -->
<svg version="1.1" id="Layer_1" xmlns="http://www.w3.org/2000/svg" xmlns:xlink="http://www.w3.org/1999/xlink" x="0px" y="0px"
	 viewBox="0 0 64 64" style="enable-background:new 0 0 64 64;" xml:space="preserve">
<style type="text/css">
	.st0{fill:#414042;}
	.st1{opacity:0.4;}
	.st2{fill:#00AEEF;}
	.st3{fill:#F15A29;}
</style>
<path class="st0" d="M59.1,64H4.9C2.2,64,0,61.8,0,59.1V4.9C0,2.2,2.2,0,4.9,0h54.2C61.8,0,64,2.2,64,4.9v54.2
	C64,61.8,61.8,64,59.1,64z"/>
<g>
	<g class="st1">
		<path d="M34.6,43.8l9.5,5.5l9.5-5.5L46,39.4v6.2h-3.6v-6.2L34.6,43.8z M42.3,35.2v-0.8C41,34,39.9,33.3,39,32.2s-1.3-2.4-1.3-3.9
			c0-1.8,0.6-3.3,1.9-4.5c1.2-1.2,2.8-1.9,4.5-1.9s3.3,0.6,4.5,1.9s1.9,2.8,1.9,4.5c0,1.5-0.4,2.7-1.3,3.9S47.3,34,46,34.4v0.8
			l12.8,7.3c0.6,0.3,1,0.8,1.3,1.3c0.3,0.6,0.5,1.2,0.5,1.8v3.5c0,0.7-0.2,1.3-0.5,1.8c-0.3,0.6-0.8,1-1.3,1.3L46,59.7
			c-0.6,0.3-1.2,0.5-1.8,0.5s-1.2-0.2-1.8-0.5l-12.8-7.3c-0.6-0.3-1-0.8-1.3-1.3s-0.5-1.2-0.5-1.8v-3.5c0-0.7,0.2-1.3,0.5-1.8
			s0.8-1,1.3-1.3L42.3,35.2z M42.3,52.4l-10.9-6.3v3.1l12.8,7.4l12.8-7.4v-3.1L46,52.4c-0.6,0.3-1.2,0.5-1.8,0.5
			S42.9,52.8,42.3,52.4z M44.1,31c0.8,0,1.4-0.3,1.9-0.8c0.5-0.5,0.8-1.2,0.8-1.9c0-0.8-0.3-1.4-0.8-1.9c-0.5-0.5-1.2-0.8-1.9-0.8
			s-1.4,0.3-1.9,0.8c-0.5,0.5-0.8,1.2-0.8,1.9c0,0.8,0.3,1.4,0.8,1.9C42.7,30.8,43.4,31,44.1,31z"/>
	</g>
	<g>
		<path class="st2" d="M32.6,41.8l9.5,5.5l9.5-5.5L44,37.4v6.2h-3.6v-6.2L32.6,41.8z M40.3,33.2v-0.8C39,32,37.9,31.3,37,30.2
			s-1.3-2.4-1.3-3.9c0-1.8,0.6-3.3,1.9-4.5c1.2-1.2,2.8-1.9,4.5-1.9s3.3,0.6,4.5,1.9s1.9,2.8,1.9,4.5c0,1.5-0.4,2.7-1.3,3.9
			S45.3,32,44,32.4v0.8l12.8,7.3c0.6,0.3,1,0.8,1.3,1.3c0.3,0.6,0.5,1.2,0.5,1.8v3.5c0,0.7-0.2,1.3-0.5,1.8c-0.3,0.6-0.8,1-1.3,1.3
			L44,57.7c-0.6,0.3-1.2,0.5-1.8,0.5s-1.2-0.2-1.8-0.5l-12.8-7.3c-0.6-0.3-1-0.8-1.3-1.3s-0.5-1.2-0.5-1.8v-3.5
			c0-0.7,0.2-1.3,0.5-1.8s0.8-1,1.3-1.3L40.3,33.2z M40.3,50.4l-10.9-6.3v3.1l12.8,7.4l12.8-7.4v-3.1L44,50.4
			c-0.6,0.3-1.2,0.5-1.8,0.5S40.9,50.8,40.3,50.4z M42.1,29c0.8,0,1.4-0.3,1.9-0.8c0.5-0.5,0.8-1.2,0.8-1.9c0-0.8-0.3-1.4-0.8-1.9
			c-0.5-0.5-1.2-0.8-1.9-0.8s-1.4,0.3-1.9,0.8c-0.5,0.5-0.8,1.2-0.8,1.9c0,0.8,0.3,1.4,0.8,1.9C40.7,28.8,41.4,29,42.1,29z"/>
	</g>
</g>
<g>
	<g class="st1">
		<path d="M25.1,23.2l1.7,1.7l9.9-9.9L35,13.3L25.1,23.2z M11.9,38.1h1.7l10.6-10.6l-1.7-1.7L11.9,36.4V38.1z M28,28.8l-6.8-6.8
			l7.6-7.6L27.5,13l-10,10L15,20.4l9.9-10c0.7-0.7,1.6-1.1,2.6-1.1s1.8,0.4,2.6,1.1l1.3,1.3l2.3-2.3c0.4-0.4,0.8-0.5,1.3-0.5
			s0.9,0.2,1.3,0.5l4.2,4.2c0.4,0.4,0.5,0.8,0.5,1.3s-0.2,0.9-0.5,1.3L28,28.8z M15,41.8H8.2v-6.8l13-13l6.8,6.8L15,41.8z"/>
	</g>
	<g>
		<path class="st3" d="M23.1,21.2l1.7,1.7l9.9-9.9L33,11.3L23.1,21.2z M9.9,36.1h1.7l10.6-10.6l-1.7-1.7L9.9,34.4V36.1z M26,26.8
			l-6.8-6.8l7.6-7.6L25.5,11l-10,10L13,18.4l9.9-10c0.7-0.7,1.6-1.1,2.6-1.1s1.8,0.4,2.6,1.1l1.3,1.3l2.3-2.3
			c0.4-0.4,0.8-0.5,1.3-0.5s0.9,0.2,1.3,0.5l4.2,4.2c0.4,0.4,0.5,0.8,0.5,1.3s-0.2,0.9-0.5,1.3L26,26.8z M13,39.8H6.2v-6.8l13-13
			l6.8,6.8L13,39.8z"/>
	</g>
</g>
</svg>
